<?xml version="1.0" encoding="UTF-8"?>
<svg width="1200pt" height="1200pt" version="1.1" viewBox="0 0 1200 1200" xmlns="http://www.w3.org/2000/svg">
 <path d="m129.84 177.12c-6.8359-6.1445-10.848-14.824-11.094-24.012s3.293-18.07 9.793-24.57 15.383-10.039 24.57-9.793 17.867 4.2578 24.012 11.094l407.04 406.92-47.281 48zm533.4 438.72-48 47.281 407.64 407.04c6.1445 6.8359 14.824 10.848 24.012 11.094s18.07-3.293 24.57-9.793 10.039-15.383 9.793-24.57-4.2578-17.867-11.094-24.012zm406.92-486c-6.2617-6.2891-14.766-9.8203-23.641-9.8203-8.8711 0-17.379 3.5312-23.641 9.8203l-893.04 893.04c-6.2891 6.2617-9.8203 14.77-9.8203 23.641 0 8.875 3.5312 17.379 9.8203 23.641 6.2617 6.2891 14.766 9.8203 23.641 9.8203 8.8711 0 17.379-3.5312 23.641-9.8203l893.04-893.04c6.2891-6.2617 9.8203-14.77 9.8203-23.641 0-8.875-3.5312-17.379-9.8203-23.641z" fill="#000"/>
</svg>
